<svg width="128" height="128" viewBox="0 0 128 128" xmlns="http://www.w3.org/2000/svg">
  <defs>
    <linearGradient id="bg" x1="0" y1="0" x2="1" y2="1">
      <stop offset="0" stop-color="#0d1117"/><stop offset="1" stop-color="#161b22"/>
    </linearGradient>
    <linearGradient id="bird" x1="0" y1="0" x2="0" y2="1">
      <stop offset="0" stop-color="#5eead4"/><stop offset="1" stop-color="#0d9488"/>
    </linearGradient>
  </defs>
  <rect width="128" height="128" rx="28" fill="url(#bg)"/>
  <!-- crest -->
  <path d="M50 30 q -5 -16 5 -23 q 6 9 2 25 z" fill="#fbbf24"/>
  <path d="M64 26 q -1 -18 9 -24 q 4 13 -2 26 z" fill="#f59e0b"/>
  <path d="M78 30 q 7 -15 17 -16 q -1 13 -10 22 z" fill="#fbbf24"/>
  <!-- head -->
  <circle cx="64" cy="72" r="42" fill="url(#bird)"/>
  <!-- eyes -->
  <circle cx="49" cy="68" r="14" fill="#fff"/><circle cx="79" cy="68" r="14" fill="#fff"/>
  <circle cx="51" cy="70" r="7.5" fill="#0b1220"/><circle cx="77" cy="70" r="7.5" fill="#0b1220"/>
  <circle cx="47.5" cy="66" r="2.6" fill="#fff"/><circle cx="73.5" cy="66" r="2.6" fill="#fff"/>
  <!-- beak -->
  <path d="M64 80 q 15 0 14 13 q -1 12 -14 16 q -13 -4 -14 -16 q -1 -13 14 -13 z" fill="#fb923c"/>
  <path d="M56 90 q 8 7 16 0 q -2 9 -8 11 q -6 -2 -8 -11 z" fill="#ea580c"/>
  <!-- headset -->
  <path d="M24 70 q 40 -50 80 0" fill="none" stroke="#e5e7eb" stroke-width="6" stroke-linecap="round"/>
  <circle cx="24" cy="74" r="9" fill="#cbd5e1"/><circle cx="24" cy="74" r="4.5" fill="#475569"/>
  <circle cx="104" cy="74" r="9" fill="#cbd5e1"/><circle cx="104" cy="74" r="4.5" fill="#475569"/>
</svg>
